<svg width="136" height="136" viewBox="0 0 136 136" fill="none" xmlns="http://www.w3.org/2000/svg">
<g clip-path="url(#clip0_1_11)" filter="url(#filter0_d_1_11)">
<rect width="128" height="128" transform="translate(4)" fill="white"/>
<path d="M24.5543 68.3896C23.0763 65.706 20.3973 66.7453 19.2425 67.6003L18.5497 79.045C18.9192 80.9393 20.5512 80.492 21.3211 80.0316C24.4619 73.4016 24.7853 69.5078 24.5543 68.3896Z" fill="#F3E1CA"/>
<path d="M59.3265 127.217V127.981H55.9632V119.672C55.9632 110.367 54.6985 100.657 47.9293 94.2713C44.1662 90.7216 38.9742 87.0791 32.0462 84.1538C29.8055 83.2076 26.9192 82.8391 25.3845 84.726C24.2729 86.0927 24.4636 88.0113 28.5473 90.2924L36.9739 96.2504C38.2208 97.1321 39.8528 98.029 38.9066 99.2276C38.0403 100.325 35.7112 99.2298 34.4795 98.5683C29.6718 95.9858 21.9701 91.789 19.7013 88.2092C18.978 87.068 17.9683 85.4216 17.0814 84.4024C14.9166 81.9146 15.3164 78.4962 15.3164 75.1985V65.7538C15.3164 64.273 15.0325 62.7315 13.9788 61.6912C13.0798 60.8037 11.9224 60.1971 10.6643 60.585C8.00163 61.4059 7.69516 64.9637 7.69516 67.7501V88.0252C7.5412 89.9262 11.1132 95.7921 26.6329 104.047C29.5582 105.755 35.4089 110.283 35.4089 114.728V127.981H31.7872V114.728C31.7872 110.772 24.8445 105.959 21.3732 104.047C5.82154 95.1855 3.78502 90.201 4.01645 88.0252V73.8077C4.01645 67.0224 4.48931 56.7906 11.2728 56.9462C14.3574 57.017 17.1073 60.1136 18.714 62.8773C18.9281 63.2457 19.3421 63.451 19.7653 63.4017C27.2966 62.5236 28.7719 67.2683 28.5473 69.8276C35.9528 71.0935 34.41 77.344 32.7129 80.311C38.7035 83.2774 43.4283 86.1508 47.1281 88.8448C58.7237 97.288 59.3265 112.873 59.3265 127.217Z" fill="black"/>
<path d="M28.4804 78.8476C31.8061 75.3748 30.0971 73.3226 28.9423 73.3226C26.6328 73.3226 24.5543 77.2691 24.5543 81.0182C25.4781 81.4917 27.5566 79.6369 28.4804 78.8476Z" fill="#F3E1CA"/>
<path d="M15.3164 73.4164V68.3645C15.3164 65.4019 14.3134 60.3882 11.361 60.6348C7.46531 60.9601 7.69514 65.8882 7.69514 69.7974V80.0316C7.51038 84.9251 8.08005 88.911 8.38798 90.2923C9.49653 93.6073 20.2433 100.487 25.4781 103.513C25.8042 103.665 26.1215 103.823 26.4304 103.988C34.3485 108.207 35.4089 118.353 35.4089 127.325V128H55.9632V109.827C56.3327 105.249 53.8077 101.079 52.499 99.5664C49.9124 94.6728 42.0294 89.3715 38.4112 87.3325C37.1523 86.2569 33.6081 84.812 30.8246 83.8023C29.2852 83.244 27.2844 83.0712 26.0224 84.1146C24.7603 85.1582 24.4399 86.7126 25.5487 87.9179C26.4236 88.8689 27.665 89.7789 28.4804 90.2923L32.1756 92.8575L38.4112 97.3959C39.8892 99.6059 37.7953 99.7637 36.5636 99.5664L33.3303 97.9878L24.5543 92.8575C21.6147 90.8025 19.4875 88.3286 18.0123 86.0372C15.6316 82.3396 15.3164 77.814 15.3164 73.4164Z" fill="#F3E1CA"/>
<path d="M24.3607 68.5124C23.7331 67.1337 22.913 66.5904 22.0833 66.5164C19.8225 66.3149 18.9603 69.2425 18.8672 71.5104L18.6546 76.6882C18.5855 78.3704 19.0835 80.9528 20.6077 80.2376C21.7677 79.6933 22.2058 78.4166 22.5799 77.1911L23.3996 74.5066L24.1003 72.3513C24.4011 71.4261 24.5543 70.4592 24.5543 69.4862C24.5543 69.1525 24.4989 68.8162 24.3607 68.5124Z" fill="#F3E1CA"/>
<path d="M111.446 68.3896C112.924 65.706 115.603 66.7452 116.757 67.6003L117.45 79.045C117.081 80.9393 115.449 80.492 114.679 80.0316C111.538 73.4016 111.215 69.5077 111.446 68.3896Z" fill="#F3E1CA"/>
<path d="M76.6735 127.217V127.981H80.0368V119.672C80.0368 110.367 81.3015 100.657 88.0707 94.2713C91.8338 90.7216 97.0258 87.0791 103.954 84.1538C106.194 83.2076 109.081 82.8391 110.615 84.726C111.727 86.0927 111.536 88.0113 107.453 90.2924L99.0261 96.2504C97.7792 97.1321 96.1472 98.029 97.0934 99.2276C97.9597 100.325 100.289 99.2298 101.52 98.5683C106.328 95.9858 114.03 91.789 116.299 88.2092C117.022 87.068 118.032 85.4216 118.919 84.4024C121.083 81.9146 120.684 78.4962 120.684 75.1985V65.7538C120.684 64.273 120.967 62.7315 122.021 61.6912C122.92 60.8037 124.078 60.1971 125.336 60.585C127.998 61.4059 128.305 64.9637 128.305 67.7501V88.0252C128.459 89.9262 124.887 95.7921 109.367 104.047C106.442 105.755 100.591 110.283 100.591 114.728V127.981H104.213V114.728C104.213 110.772 111.155 105.959 114.627 104.047C130.178 95.1855 132.215 90.201 131.984 88.0252V73.8077C131.984 67.0224 131.511 56.7906 124.727 56.9462C121.643 57.017 118.893 60.1136 117.286 62.8773C117.072 63.2457 116.658 63.451 116.235 63.4017C108.703 62.5236 107.228 67.2683 107.453 69.8276C100.047 71.0935 101.59 77.344 103.287 80.311C97.2965 83.2774 92.5717 86.1508 88.8719 88.8448C77.2763 97.288 76.6735 112.873 76.6735 127.217Z" fill="black"/>
<path d="M107.52 78.8476C104.194 75.3747 105.903 73.3226 107.058 73.3226C109.367 73.3226 111.446 77.269 111.446 81.0181C110.522 81.4917 108.443 79.6369 107.52 78.8476Z" fill="#F3E1CA"/>
<path d="M120.684 73.4163V68.3645C120.684 65.4018 121.687 60.3882 124.639 60.6348C128.535 60.9601 128.305 65.8881 128.305 69.7974V80.0315C128.49 84.9251 127.92 88.911 127.612 90.2923C126.503 93.6073 115.757 100.487 110.522 103.513C110.196 103.665 109.878 103.823 109.57 103.988C101.651 108.207 100.591 118.353 100.591 127.325V128H80.0367V109.827C79.6672 105.249 82.1923 101.079 83.501 99.5664C86.0876 94.6728 93.9706 89.3714 97.5888 87.3324C98.8476 86.2569 102.392 84.8119 105.175 83.8023C106.715 83.2439 108.716 83.0711 109.977 84.1146C111.24 85.1582 111.56 86.7126 110.451 87.9179C109.576 88.8689 108.335 89.7789 107.52 90.2923L103.824 92.8574L97.5888 97.3958C96.1107 99.6058 98.2046 99.7637 99.4363 99.5664L102.67 97.9878L111.446 92.8574C114.385 90.8025 116.512 88.3285 117.988 86.0372C120.368 82.3396 120.684 77.814 120.684 73.4163Z" fill="#F3E1CA"/>
<path d="M111.639 68.5124C112.267 67.1336 113.087 66.5904 113.917 66.5164C116.177 66.3149 117.04 69.2425 117.133 71.5104L117.345 76.6882C117.414 78.3704 116.916 80.9527 115.392 80.2376C114.232 79.6933 113.794 78.4165 113.42 77.191L112.6 74.5065L111.9 72.3513C111.599 71.426 111.446 70.4592 111.446 69.4862C111.446 69.1525 111.501 68.8162 111.639 68.5124Z" fill="#F3E1CA"/>
<path d="M109.806 44.1961C109.806 67.1968 91.6924 85.8425 69.3485 85.8425C47.0047 85.8425 28.8914 67.1968 28.8914 44.1961C28.8914 21.1955 47.0047 2.54977 69.3485 2.54977C91.6924 2.54977 109.806 21.1955 109.806 44.1961Z" fill="#B5D9E9"/>
<path d="M48.5503 34.4731C44.529 32.1069 38.2177 23.0648 35.5648 18.8395C63.7141 -11.5827 91.4166 5.31851 101.749 17.5719C105.771 22.6422 100.074 29.8253 96.7225 32.783L84.1559 33.628L72.0081 37.0083H66.9814L51.4825 33.628V43.3462H45.6181C46.9585 40.9801 48.1314 36.4449 48.5503 34.4731Z" fill="#BFE4C7"/>
<path d="M64.3435 78.6181C59.6722 74.8785 59.3385 67.7107 59.7556 64.5943L66.846 66.2942H71.851L87.2831 60.7697L93.9565 63.7444L95.2077 75.2184C89.2017 83.7177 75.1877 86.1258 68.9314 86.2675L64.3435 78.6181Z" fill="#BFE4C7"/>
<path d="M109.974 43.7712C109.974 67.1574 91.5586 86.0424 68.9315 86.0424C46.3043 86.0424 27.8889 67.1574 27.8889 43.7712C27.8889 20.3849 46.3043 1.5 68.9315 1.5C91.5586 1.5 109.974 20.3849 109.974 43.7712Z" stroke="black" stroke-width="3"/>
<path d="M31.8115 66.9582C22.4206 64.6073 24.5082 55.977 26.806 51.8455C27.2334 50.9843 29.4681 49.6587 31.0307 48.8405C31.5445 48.5715 32.1036 48.3992 32.6749 48.2994C37.938 47.3802 41.2966 46.2799 43.3301 45.3126C45.2152 44.4159 47.2668 43.025 49.3421 43.2497C53.8085 43.7331 56.1554 46.7119 56.836 48.4458C60.7269 60.9997 43.4023 66.0093 33.4901 67.0622C32.9287 67.1219 32.3592 67.0953 31.8115 66.9582Z" fill="#D8F1FC" stroke="black" stroke-width="3"/>
<path d="M106.989 66.1238C116.414 63.8834 114.325 55.604 112.025 51.6427C111.596 50.8144 109.344 49.5372 107.781 48.7545C107.28 48.5038 106.739 48.3436 106.186 48.2514C100.919 47.372 97.5564 46.3187 95.5185 45.392C93.6363 44.5362 91.5867 43.1999 89.5295 43.4071C85.0421 43.859 82.6856 46.7221 82.0034 48.3868C78.1089 60.4241 95.4749 65.2189 105.378 66.2194C105.917 66.2738 106.463 66.2489 106.989 66.1238Z" fill="#D8F1FC" stroke="black" stroke-width="3"/>
<path d="M51.4139 33.997L66.8917 37.3789H71.4511L86.089 33.997L86.449 61.5596L71.4511 66.2942H66.8917L51.4139 61.5596V33.997Z" fill="#FF846C"/>
<path d="M66.8917 37.3789L51.4139 33.997V61.5596L66.8917 66.2942M66.8917 37.3789V66.2942M66.8917 37.3789H71.4511M66.8917 66.2942H71.4511M71.4511 37.3789L86.089 33.997L86.449 61.5596L71.4511 66.2942M71.4511 37.3789V66.2942M75.2906 44.1427L83.6894 41.6063M75.2906 47.6937L83.6894 45.1573" stroke="black" stroke-width="2"/>
<ellipse cx="55.1677" cy="24.6479" rx="5.42209" ry="4.24963" fill="#FBC2CA"/>
<ellipse cx="82.6953" cy="24.6479" rx="5.42209" ry="4.24963" fill="#FBC2CA"/>
<path d="M73.7706 25.0728C73.7706 27.5202 71.657 29.5973 68.9315 29.5973C66.2059 29.5973 64.0923 27.5202 64.0923 25.0728C64.0923 24.4505 64.2249 24.102 64.3703 23.8945C64.5127 23.6911 64.7393 23.5201 65.1269 23.3872C65.5283 23.2496 66.052 23.1707 66.7165 23.1322C67.3171 23.0973 67.9753 23.0977 68.7041 23.098C68.7792 23.0981 68.8549 23.0981 68.9315 23.0981C69.008 23.0981 69.0838 23.0981 69.1588 23.098C69.8876 23.0977 70.5458 23.0973 71.1464 23.1322C71.8109 23.1707 72.3346 23.2496 72.7361 23.3872C73.1236 23.5201 73.3502 23.6911 73.4927 23.8945C73.638 24.102 73.7706 24.4505 73.7706 25.0728Z" fill="#F8DBDF" stroke="black" stroke-width="2"/>
<ellipse cx="81.8611" cy="20.3982" rx="2.08542" ry="2.54978" fill="black"/>
<ellipse cx="56.0019" cy="20.3982" rx="2.08542" ry="2.54978" fill="black"/>
<path d="M35.5648 19.5483C37.1099 22.2764 40.4979 27.3199 44.1833 30.5502C46.4254 32.5155 48.7985 34.6688 48.0389 37.552C47.5623 39.3608 46.5602 41.6686 44.6843 44.4614M103.132 20.3928C102.718 23.3486 101.881 32.7221 94.4273 33.4827C86.9735 34.2433 82.1574 33.4827 81.1625 35.1718M59.6072 63.8852C59.2276 66.592 59.4042 72.6276 62.7476 76.7383C63.367 77.5 64.0365 78.2239 64.583 79.0394C66.2963 81.596 68.5944 85.2677 68.3122 85.8425M93.5982 63.4629C94.1509 65.9964 95.1734 72.0769 94.8418 76.1306" stroke="black" stroke-width="3"/>
</g>
<defs>
<filter id="filter0_d_1_11" x="0" y="0" width="136" height="136" filterUnits="userSpaceOnUse" color-interpolation-filters="sRGB">
<feFlood flood-opacity="0" result="BackgroundImageFix"/>
<feColorMatrix in="SourceAlpha" type="matrix" values="0 0 0 0 0 0 0 0 0 0 0 0 0 0 0 0 0 0 127 0" result="hardAlpha"/>
<feOffset dy="4"/>
<feGaussianBlur stdDeviation="2"/>
<feComposite in2="hardAlpha" operator="out"/>
<feColorMatrix type="matrix" values="0 0 0 0 0 0 0 0 0 0 0 0 0 0 0 0 0 0 0.25 0"/>
<feBlend mode="normal" in2="BackgroundImageFix" result="effect1_dropShadow_1_11"/>
<feBlend mode="normal" in="SourceGraphic" in2="effect1_dropShadow_1_11" result="shape"/>
</filter>
<clipPath id="clip0_1_11">
<rect width="128" height="128" fill="white" transform="translate(4)"/>
</clipPath>
</defs>
</svg>
