<svg width="128" height="128" viewBox="0 0 128 128" fill="none" xmlns="http://www.w3.org/2000/svg">
<path d="M20.5543 68.3896C19.0763 65.706 16.3973 66.7453 15.2425 67.6003L14.5497 79.045C14.9192 80.9393 16.5512 80.492 17.3211 80.0316C20.4619 73.4016 20.7853 69.5078 20.5543 68.3896Z" fill="#F3E1CA"/>
<path d="M55.3265 127.217V127.981H51.9632V119.672C51.9632 110.367 50.6985 100.657 43.9293 94.2713C40.1662 90.7216 34.9742 87.0791 28.0462 84.1538C25.8055 83.2076 22.9192 82.8391 21.3845 84.726C20.2729 86.0927 20.4636 88.0113 24.5473 90.2924L32.9739 96.2504C34.2208 97.1321 35.8528 98.029 34.9066 99.2276C34.0403 100.325 31.7112 99.2298 30.4795 98.5683C25.6718 95.9858 17.9701 91.789 15.7013 88.2092C14.978 87.068 13.9683 85.4216 13.0814 84.4024C10.9166 81.9146 11.3164 78.4962 11.3164 75.1985V65.7538C11.3164 64.273 11.0325 62.7315 9.97882 61.6912C9.07978 60.8037 7.92239 60.1971 6.66435 60.585C4.00163 61.4059 3.69516 64.9637 3.69516 67.7501V88.0252C3.5412 89.9262 7.11319 95.7921 22.6329 104.047C25.5582 105.755 31.4089 110.283 31.4089 114.728V127.981H27.7872V114.728C27.7872 110.772 20.8445 105.959 17.3732 104.047C1.82154 95.1855 -0.214978 90.201 0.016445 88.0252V73.8077C0.016445 67.0224 0.489306 56.7906 7.27277 56.9462C10.3574 57.017 13.1073 60.1136 14.714 62.8773C14.9281 63.2457 15.3421 63.451 15.7653 63.4017C23.2966 62.5236 24.7719 67.2683 24.5473 69.8276C31.9528 71.0935 30.41 77.344 28.7129 80.311C34.7035 83.2774 39.4283 86.1508 43.1281 88.8448C54.7237 97.288 55.3265 112.873 55.3265 127.217Z" fill="black"/>
<path d="M24.4804 78.8476C27.8061 75.3748 26.0971 73.3226 24.9423 73.3226C22.6328 73.3226 20.5543 77.2691 20.5543 81.0182C21.4781 81.4917 23.5566 79.6369 24.4804 78.8476Z" fill="#F3E1CA"/>
<path d="M11.3164 73.4164V68.3645C11.3164 65.4019 10.3134 60.3882 7.36103 60.6348C3.46531 60.9601 3.69514 65.8882 3.69514 69.7974V80.0316C3.51038 84.9251 4.08005 88.911 4.38798 90.2923C5.49653 93.6073 16.2433 100.487 21.4781 103.513C21.8042 103.665 22.1215 103.823 22.4304 103.988C30.3485 108.207 31.4089 118.353 31.4089 127.325V128H51.9632V109.827C52.3327 105.249 49.8077 101.079 48.499 99.5664C45.9124 94.6728 38.0294 89.3715 34.4112 87.3325C33.1523 86.2569 29.6081 84.812 26.8246 83.8023C25.2852 83.244 23.2844 83.0712 22.0224 84.1146C20.7603 85.1582 20.4399 86.7126 21.5487 87.9179C22.4236 88.8689 23.665 89.7789 24.4804 90.2923L28.1756 92.8575L34.4112 97.3959C35.8892 99.6059 33.7953 99.7637 32.5636 99.5664L29.3303 97.9878L20.5543 92.8575C17.6147 90.8025 15.4875 88.3286 14.0123 86.0372C11.6316 82.3396 11.3164 77.814 11.3164 73.4164Z" fill="#F3E1CA"/>
<path d="M20.3607 68.5124C19.7331 67.1337 18.913 66.5904 18.0833 66.5164C15.8225 66.3149 14.9603 69.2425 14.8672 71.5104L14.6546 76.6882C14.5855 78.3704 15.0835 80.9528 16.6077 80.2376C17.7677 79.6933 18.2058 78.4166 18.5799 77.1911L19.3996 74.5066L20.1003 72.3513C20.4011 71.4261 20.5543 70.4592 20.5543 69.4862C20.5543 69.1525 20.4989 68.8162 20.3607 68.5124Z" fill="#F3E1CA"/>
<path d="M107.446 68.3896C108.924 65.706 111.603 66.7452 112.757 67.6003L113.45 79.045C113.081 80.9393 111.449 80.492 110.679 80.0316C107.538 73.4016 107.215 69.5077 107.446 68.3896Z" fill="#F3E1CA"/>
<path d="M72.6735 127.217V127.981H76.0368V119.672C76.0368 110.367 77.3015 100.657 84.0707 94.2713C87.8338 90.7216 93.0258 87.0791 99.9538 84.1538C102.194 83.2076 105.081 82.8391 106.615 84.726C107.727 86.0927 107.536 88.0113 103.453 90.2924L95.0261 96.2504C93.7792 97.1321 92.1472 98.029 93.0934 99.2276C93.9597 100.325 96.2888 99.2298 97.5205 98.5683C102.328 95.9858 110.03 91.789 112.299 88.2092C113.022 87.068 114.032 85.4216 114.919 84.4024C117.083 81.9146 116.684 78.4962 116.684 75.1985V65.7538C116.684 64.273 116.967 62.7315 118.021 61.6912C118.92 60.8037 120.078 60.1971 121.336 60.585C123.998 61.4059 124.305 64.9637 124.305 67.7501V88.0252C124.459 89.9262 120.887 95.7921 105.367 104.047C102.442 105.755 96.5911 110.283 96.5911 114.728V127.981H100.213V114.728C100.213 110.772 107.155 105.959 110.627 104.047C126.178 95.1855 128.215 90.201 127.984 88.0252V73.8077C127.984 67.0224 127.511 56.7906 120.727 56.9462C117.643 57.017 114.893 60.1136 113.286 62.8773C113.072 63.2457 112.658 63.451 112.235 63.4017C104.703 62.5236 103.228 67.2683 103.453 69.8276C96.0472 71.0935 97.59 77.344 99.2871 80.311C93.2965 83.2774 88.5717 86.1508 84.8719 88.8448C73.2763 97.288 72.6735 112.873 72.6735 127.217Z" fill="black"/>
<path d="M103.52 78.8476C100.194 75.3747 101.903 73.3226 103.058 73.3226C105.367 73.3226 107.446 77.269 107.446 81.0181C106.522 81.4917 104.443 79.6369 103.52 78.8476Z" fill="#F3E1CA"/>
<path d="M116.684 73.4163V68.3645C116.684 65.4018 117.687 60.3882 120.639 60.6348C124.535 60.9601 124.305 65.8881 124.305 69.7974V80.0315C124.49 84.9251 123.92 88.911 123.612 90.2923C122.503 93.6073 111.757 100.487 106.522 103.513C106.196 103.665 105.878 103.823 105.57 103.988C97.6514 108.207 96.5911 118.353 96.5911 127.325V128H76.0367V109.827C75.6672 105.249 78.1923 101.079 79.501 99.5664C82.0876 94.6728 89.9706 89.3714 93.5888 87.3324C94.8476 86.2569 98.3919 84.8119 101.175 83.8023C102.715 83.2439 104.716 83.0711 105.977 84.1146C107.24 85.1582 107.56 86.7126 106.451 87.9179C105.576 88.8689 104.335 89.7789 103.52 90.2923L99.8244 92.8574L93.5888 97.3958C92.1107 99.6058 94.2046 99.7637 95.4363 99.5664L98.6696 97.9878L107.446 92.8574C110.385 90.8025 112.512 88.3285 113.988 86.0372C116.368 82.3396 116.684 77.814 116.684 73.4163Z" fill="#F3E1CA"/>
<path d="M107.639 68.5124C108.267 67.1336 109.087 66.5904 109.917 66.5164C112.177 66.3149 113.04 69.2425 113.133 71.5104L113.345 76.6882C113.414 78.3704 112.916 80.9527 111.392 80.2376C110.232 79.6933 109.794 78.4165 109.42 77.191L108.6 74.5065L107.9 72.3513C107.599 71.426 107.446 70.4592 107.446 69.4862C107.446 69.1525 107.501 68.8162 107.639 68.5124Z" fill="#F3E1CA"/>
<path d="M105.806 44.1961C105.806 67.1968 87.6924 85.8425 65.3485 85.8425C43.0047 85.8425 24.8914 67.1968 24.8914 44.1961C24.8914 21.1955 43.0047 2.54977 65.3485 2.54977C87.6924 2.54977 105.806 21.1955 105.806 44.1961Z" fill="#B5D9E9"/>
<path d="M44.5503 34.4731C40.529 32.1069 34.2177 23.0648 31.5648 18.8395C59.7141 -11.5827 87.4166 5.31851 97.7492 17.5719C101.771 22.6422 96.0737 29.8253 92.7225 32.783L80.1559 33.628L68.0081 37.0083H62.9814L47.4825 33.628V43.3462H41.6181C42.9585 40.9801 44.1314 36.4449 44.5503 34.4731Z" fill="#BFE4C7"/>
<path d="M60.3435 78.6181C55.6722 74.8785 55.3385 67.7107 55.7556 64.5943L62.846 66.2942H67.851L83.2831 60.7697L89.9565 63.7444L91.2077 75.2184C85.2017 83.7177 71.1877 86.1258 64.9314 86.2675L60.3435 78.6181Z" fill="#BFE4C7"/>
<path d="M105.974 43.7712C105.974 67.1574 87.5587 86.0424 64.9315 86.0424C42.3043 86.0424 23.8889 67.1574 23.8889 43.7712C23.8889 20.3849 42.3043 1.5 64.9315 1.5C87.5587 1.5 105.974 20.3849 105.974 43.7712Z" stroke="black" stroke-width="3"/>
<path d="M27.8115 66.9582C18.4206 64.6073 20.5082 55.977 22.806 51.8455C23.2334 50.9843 25.4681 49.6587 27.0307 48.8405C27.5445 48.5715 28.1036 48.3992 28.6749 48.2994C33.938 47.3802 37.2966 46.2799 39.3301 45.3126C41.2152 44.4159 43.2668 43.025 45.3421 43.2497C49.8085 43.7331 52.1554 46.7119 52.836 48.4458C56.7269 60.9997 39.4023 66.0093 29.4901 67.0622C28.9287 67.1219 28.3592 67.0953 27.8115 66.9582Z" fill="#D8F1FC" stroke="black" stroke-width="3"/>
<path d="M102.989 66.1238C112.414 63.8834 110.325 55.604 108.025 51.6427C107.596 50.8144 105.344 49.5372 103.781 48.7545C103.28 48.5038 102.739 48.3436 102.186 48.2514C96.9194 47.372 93.5564 46.3187 91.5185 45.392C89.6363 44.5362 87.5867 43.1999 85.5295 43.4071C81.0421 43.859 78.6856 46.7221 78.0034 48.3868C74.1089 60.4241 91.4749 65.2189 101.378 66.2194C101.917 66.2738 102.463 66.2489 102.989 66.1238Z" fill="#D8F1FC" stroke="black" stroke-width="3"/>
<path d="M47.4139 33.997L62.8917 37.3789H67.4511L82.089 33.997L82.449 61.5596L67.4511 66.2942H62.8917L47.4139 61.5596V33.997Z" fill="#FF846C"/>
<path d="M62.8917 37.3789L47.4139 33.997V61.5596L62.8917 66.2942M62.8917 37.3789V66.2942M62.8917 37.3789H67.4511M62.8917 66.2942H67.4511M67.4511 37.3789L82.089 33.997L82.449 61.5596L67.4511 66.2942M67.4511 37.3789V66.2942M71.2906 44.1427L79.6894 41.6063M71.2906 47.6937L79.6894 45.1573" stroke="black" stroke-width="2"/>
<ellipse cx="51.1677" cy="24.6479" rx="5.42209" ry="4.24963" fill="#FBC2CA"/>
<ellipse cx="78.6953" cy="24.6479" rx="5.42209" ry="4.24963" fill="#FBC2CA"/>
<path d="M69.7706 25.0728C69.7706 27.5202 67.657 29.5973 64.9315 29.5973C62.2059 29.5973 60.0923 27.5202 60.0923 25.0728C60.0923 24.4505 60.2249 24.102 60.3703 23.8945C60.5127 23.6911 60.7393 23.5201 61.1269 23.3872C61.5283 23.2496 62.052 23.1707 62.7165 23.1322C63.3171 23.0973 63.9753 23.0977 64.7041 23.098C64.7792 23.0981 64.8549 23.0981 64.9315 23.0981C65.008 23.0981 65.0838 23.0981 65.1588 23.098C65.8876 23.0977 66.5458 23.0973 67.1464 23.1322C67.8109 23.1707 68.3346 23.2496 68.7361 23.3872C69.1236 23.5201 69.3502 23.6911 69.4927 23.8945C69.638 24.102 69.7706 24.4505 69.7706 25.0728Z" fill="#F8DBDF" stroke="black" stroke-width="2"/>
<ellipse cx="77.8611" cy="20.3982" rx="2.08542" ry="2.54978" fill="black"/>
<ellipse cx="52.0019" cy="20.3982" rx="2.08542" ry="2.54978" fill="black"/>
<path d="M31.5648 19.5483C33.1099 22.2764 36.4979 27.3199 40.1833 30.5502C42.4254 32.5155 44.7985 34.6688 44.0389 37.552C43.5623 39.3608 42.5602 41.6686 40.6843 44.4614M99.1323 20.3928C98.7178 23.3486 97.8811 32.7221 90.4273 33.4827C82.9735 34.2433 78.1574 33.4827 77.1625 35.1718M55.6072 63.8852C55.2276 66.592 55.4042 72.6276 58.7476 76.7383C59.367 77.5 60.0365 78.2239 60.583 79.0394C62.2963 81.596 64.5944 85.2677 64.3122 85.8425M89.5982 63.4629C90.1509 65.9964 91.1734 72.0769 90.8418 76.1306" stroke="black" stroke-width="3"/>
</svg>
